<svg width="112" height="59" viewBox="0 0 112 59" fill="none" xmlns="http://www.w3.org/2000/svg">
<g clip-path="url(#clip0_157_501)">
<path d="M107.927 0H4.07273C1.82342 0 0 1.2761 0 2.85024V56.1498C0 57.7239 1.82342 59 4.07273 59H107.927C110.177 59 112 57.7239 112 56.1498V2.85024C112 1.2761 110.177 0 107.927 0Z" fill="#EEED56"/>
<path d="M35.5071 27.2348V25.3878L35.388 24.9945V21.7623C35.388 21.1353 35.2008 20.6507 34.8264 20.3087C34.452 19.9553 33.8847 19.7786 33.1246 19.7786C32.6141 19.7786 32.1092 19.8584 31.61 20.018C31.1221 20.1776 30.708 20.3999 30.3677 20.6849L29.5338 19.1287C30.0216 18.7525 30.6002 18.4731 31.2696 18.2907C31.9503 18.0969 32.6538 18 33.3799 18C34.6959 18 35.7114 18.3192 36.4261 18.9577C37.1522 19.5847 37.5153 20.5595 37.5153 21.882V27.2348H35.5071ZM32.6481 27.3545C31.9674 27.3545 31.3717 27.2405 30.8612 27.0125C30.3506 26.773 29.9535 26.4481 29.6699 26.0377C29.3976 25.6158 29.2615 25.1427 29.2615 24.6183C29.2615 24.1052 29.3806 23.6435 29.6189 23.233C29.8685 22.8226 30.2712 22.4977 30.8271 22.2583C31.3831 22.0188 32.1205 21.8991 33.0395 21.8991H35.6773V23.3186H33.1927C32.4666 23.3186 31.9787 23.4383 31.7291 23.6777C31.4795 23.9057 31.3547 24.1907 31.3547 24.5328C31.3547 24.9204 31.5079 25.2282 31.8142 25.4562C32.1205 25.6843 32.546 25.7983 33.0906 25.7983C33.6125 25.7983 34.0776 25.6785 34.4861 25.4391C34.9058 25.1997 35.2065 24.8463 35.388 24.3788L35.7454 25.6615C35.5412 26.1973 35.1725 26.6134 34.6392 26.9099C34.1173 27.2063 33.4536 27.3545 32.6481 27.3545ZM41.7469 27.2348L38.4113 18.1026H40.4194L43.2785 26.1574H42.3255L45.3207 18.1026H47.1076L50.0177 26.1574H49.0817L52.0258 18.1026H53.9149L50.5623 27.2348H48.5201L45.8653 20.1035H46.4949L43.789 27.2348H41.7469Z" fill="#838200"/>
<path d="M10.5586 26.9517V7H17.2524V21.7357H26.2153V26.9517H10.5586Z" fill="#424212"/>
<path d="M71.0211 7H77.715V26.9517H71.0211V7ZM64.8379 26.9517H58.144V7H64.8379V26.9517ZM71.475 19.5981H64.384V14.0686H71.475V19.5981Z" fill="#424212"/>
<path d="M84.4598 26.809C83.6883 26.809 83.0076 26.6665 82.4177 26.3815C81.8277 26.085 81.3682 25.6404 81.0392 25.0475C80.7102 24.4433 80.5457 23.6851 80.5457 22.773V17.5571H82.6729V22.4823C82.6729 23.3032 82.8545 23.9188 83.2175 24.3293C83.5919 24.7283 84.1195 24.9278 84.8002 24.9278C85.2994 24.9278 85.7305 24.8252 86.0936 24.62C86.468 24.4148 86.7573 24.107 86.9615 23.6965C87.1771 23.2861 87.2849 22.7787 87.2849 22.1745V17.5571H89.4121V26.6893H87.387V24.2267L87.7443 24.9791C87.438 25.572 86.9899 26.028 86.3999 26.3472C85.8099 26.6551 85.1633 26.809 84.4598 26.809ZM96.8945 26.809C96.123 26.809 95.4366 26.638 94.8353 26.2959C94.2339 25.9539 93.7574 25.4409 93.4057 24.7568C93.0654 24.0614 92.8952 23.1835 92.8952 22.1232C92.8952 21.0515 93.071 20.1736 93.4227 19.4896C93.7858 18.8055 94.268 18.2982 94.8693 17.9675C95.4819 17.6255 96.157 17.4545 96.8945 17.4545C97.7907 17.4545 98.5793 17.6483 99.26 18.0359C99.9521 18.4236 100.497 18.9651 100.894 19.6606C101.302 20.356 101.506 21.1769 101.506 22.1232C101.506 23.0695 101.302 23.8903 100.894 24.5858C100.497 25.2813 99.9521 25.8285 99.26 26.2275C98.5793 26.6152 97.7907 26.809 96.8945 26.809ZM91.8571 26.6893V14H93.9843V19.6777L93.8142 22.1061L93.8822 24.5345V26.6893H91.8571ZM96.6562 24.9791C97.1667 24.9791 97.6206 24.8651 98.0177 24.6371C98.4261 24.4091 98.7494 24.0785 98.9877 23.6452C99.2259 23.212 99.3451 22.7046 99.3451 22.1232C99.3451 21.5303 99.2259 21.023 98.9877 20.6012C98.7494 20.1679 98.4261 19.8373 98.0177 19.6093C97.6206 19.3813 97.1667 19.2672 96.6562 19.2672C96.1457 19.2672 95.6862 19.3813 95.2777 19.6093C94.8693 19.8373 94.5459 20.1679 94.3077 20.6012C94.0694 21.023 93.9503 21.5303 93.9503 22.1232C93.9503 22.7046 94.0694 23.212 94.3077 23.6452C94.5459 24.0785 94.8693 24.4091 95.2777 24.6371C95.6862 24.8651 96.1457 24.9791 96.6562 24.9791Z" fill="#838200"/>
</g>
<path d="M27.063 40V34.4H29.287C29.783 34.4 30.183 34.52 30.487 34.76C30.7963 35 30.951 35.3653 30.951 35.856C30.951 36.1547 30.8657 36.408 30.695 36.616C30.5297 36.824 30.3243 36.9813 30.079 37.088V37.112C30.3937 37.224 30.6203 37.3867 30.759 37.6C30.8977 37.808 30.967 38.0747 30.967 38.4C30.967 38.736 30.8843 39.024 30.719 39.264C30.5537 39.504 30.343 39.688 30.087 39.816C29.8363 39.9387 29.575 40 29.303 40H27.063ZM27.767 36.8H29.223C29.3083 36.8 29.407 36.792 29.519 36.776C29.6363 36.7547 29.751 36.7147 29.863 36.656C29.975 36.592 30.0657 36.5013 30.135 36.384C30.2097 36.2667 30.247 36.112 30.247 35.92C30.247 35.6907 30.1937 35.5147 30.087 35.392C29.9803 35.264 29.847 35.1733 29.687 35.12C29.527 35.0667 29.367 35.04 29.207 35.04H27.767V36.8ZM27.767 39.36H29.047C29.431 39.36 29.7297 39.28 29.943 39.12C30.1563 38.96 30.263 38.72 30.263 38.4C30.263 38.1333 30.1697 37.904 29.983 37.712C29.8017 37.52 29.5537 37.424 29.239 37.424H27.767V39.36Z" fill="#838200"/>
<path d="M31.3854 40L32.8414 37.872L31.4014 35.84H32.1854L33.2894 37.408L34.3134 35.84H35.0974L33.6814 37.952L35.1294 40H34.3454L33.2414 38.44L32.1694 40H31.3854Z" fill="#838200"/>
<path d="M37.3099 40.096C36.8566 40.096 36.4886 39.9947 36.2059 39.792C35.9233 39.584 35.7153 39.3147 35.5819 38.984C35.4539 38.6533 35.3899 38.2987 35.3899 37.92C35.3899 37.5307 35.4566 37.1707 35.5899 36.84C35.7233 36.5093 35.9313 36.2453 36.2139 36.048C36.4966 35.8453 36.8619 35.744 37.3099 35.744C37.7633 35.744 38.1286 35.848 38.4059 36.056C38.6886 36.2587 38.8966 36.5253 39.0299 36.856C39.1633 37.1867 39.2299 37.5413 39.2299 37.92C39.2299 38.3307 39.1579 38.7013 39.0139 39.032C38.8753 39.3573 38.6646 39.616 38.3819 39.808C38.0993 40 37.7419 40.096 37.3099 40.096ZM37.3099 39.488C37.5499 39.488 37.7499 39.4427 37.9099 39.352C38.0699 39.256 38.1953 39.1307 38.2859 38.976C38.3819 38.8213 38.4486 38.6533 38.4859 38.472C38.5233 38.2853 38.5419 38.1013 38.5419 37.92C38.5419 37.744 38.5206 37.5653 38.4779 37.384C38.4406 37.1973 38.3766 37.0267 38.2859 36.872C38.1953 36.7173 38.0699 36.592 37.9099 36.496C37.7499 36.4 37.5499 36.352 37.3099 36.352C37.0593 36.352 36.8539 36.4 36.6939 36.496C36.5339 36.592 36.4086 36.72 36.3179 36.88C36.2273 37.0347 36.1633 37.2053 36.1259 37.392C36.0939 37.5733 36.0779 37.7493 36.0779 37.92C36.0779 38.1653 36.1126 38.4107 36.1819 38.656C36.2566 38.896 36.3819 39.096 36.5579 39.256C36.7393 39.4107 36.9899 39.488 37.3099 39.488Z" fill="#838200"/>
<path d="M39.6513 41.024V39.376H39.9953C40.1233 39.3013 40.2273 39.1413 40.3073 38.896C40.3926 38.6507 40.4486 38.3493 40.4753 37.992L40.6513 35.84H43.5313V39.376H44.1233V41.024H43.4593V40H40.3153V41.024H39.6513ZM41.1393 38.008C41.1073 38.36 41.0673 38.6453 41.0193 38.864C40.9766 39.0773 40.8966 39.248 40.7793 39.376H42.8433V36.448H41.2673L41.1393 38.008Z" fill="#838200"/>
<path d="M44.8167 40V35.84H45.4887V38.92L47.5527 35.84H48.2247V40H47.5527V36.944L45.4887 40H44.8167Z" fill="#838200"/>
<path d="M50.2864 40V36.448H48.9424V35.84H52.3504V36.448H50.9744V40H50.2864Z" fill="#838200"/>
<path d="M54.6683 40V35.84H56.3803C56.7856 35.84 57.0976 35.9413 57.3162 36.144C57.5349 36.3413 57.6443 36.5973 57.6443 36.912C57.6443 37.136 57.5909 37.3253 57.4843 37.48C57.3829 37.6293 57.2656 37.736 57.1323 37.8V37.816C57.3189 37.8693 57.4789 37.984 57.6123 38.16C57.7509 38.3307 57.8203 38.5493 57.8203 38.816C57.8203 39.1627 57.7003 39.448 57.4603 39.672C57.2202 39.8907 56.8923 40 56.4762 40H54.6683ZM56.3162 36.448H55.3403V37.568H56.3162C56.5189 37.568 56.6763 37.5173 56.7882 37.416C56.9002 37.3093 56.9563 37.168 56.9563 36.992C56.9563 36.6293 56.7429 36.448 56.3162 36.448ZM56.3963 38.16H55.3403V39.392H56.3963C56.6203 39.392 56.7989 39.336 56.9323 39.224C57.0656 39.112 57.1323 38.96 57.1323 38.768C57.1323 38.3627 56.8869 38.16 56.3963 38.16Z" fill="#838200"/>
<path d="M60.2698 40V35.84H62.9418V36.448H60.9578V40H60.2698Z" fill="#838200"/>
<path d="M63.7229 41.488V35.84H64.3789V36.376H64.3949C64.5816 36.1573 64.7843 35.9973 65.0029 35.896C65.2216 35.7947 65.4536 35.744 65.6989 35.744C66.0403 35.744 66.3469 35.8347 66.6189 36.016C66.8963 36.192 67.1149 36.4453 67.2749 36.776C67.4403 37.1013 67.5229 37.488 67.5229 37.936C67.5229 38.384 67.4429 38.7707 67.2829 39.096C67.1283 39.416 66.9096 39.664 66.6269 39.84C66.3496 40.0107 66.0269 40.096 65.6589 40.096C65.0936 40.096 64.6776 39.8827 64.4109 39.456H64.3949V41.488H63.7229ZM65.6189 39.472C66.0189 39.472 66.3176 39.3253 66.5149 39.032C66.7176 38.7333 66.8189 38.3573 66.8189 37.904C66.8189 37.6267 66.7709 37.3733 66.6749 37.144C66.5843 36.9093 66.4483 36.7227 66.2669 36.584C66.0909 36.44 65.8749 36.368 65.6189 36.368C65.2616 36.368 64.9656 36.4987 64.7309 36.76C64.5016 37.016 64.3869 37.3973 64.3869 37.904C64.3869 38.2027 64.4296 38.472 64.5149 38.712C64.6003 38.9467 64.7336 39.1333 64.9149 39.272C65.0963 39.4053 65.3309 39.472 65.6189 39.472Z" fill="#838200"/>
<path d="M68.8319 41.528L69.4319 40L67.7679 35.84H68.5359L69.7839 39.088H69.7999L70.1679 38.088L70.9919 35.84H71.7279L69.5759 41.528H68.8319Z" fill="#838200"/>
<path d="M72.3323 40V35.84H75.6763V40H74.9883V36.448H73.0203V40H72.3323Z" fill="#838200"/>
<path d="M76.6604 40V35.84H80.0044V40H79.3164V36.448H77.3484V40H76.6604Z" fill="#838200"/>
<path d="M81.6366 41.528L82.2366 40L80.5726 35.84H81.3406L82.5886 39.088H82.6046L82.9726 38.088L83.7966 35.84H84.5326L82.3806 41.528H81.6366Z" fill="#838200"/>
<path d="M12.2776 49V44.84H12.9656V46.496H13.0776L14.7096 44.84H15.5736L13.6776 46.784L15.6056 49H14.7096L13.0376 47.08H12.9656V49H12.2776Z" fill="#838200"/>
<path d="M17.8021 49.096C17.3488 49.096 16.9808 48.9947 16.6981 48.792C16.4155 48.584 16.2075 48.3147 16.0741 47.984C15.9461 47.6533 15.8821 47.2987 15.8821 46.92C15.8821 46.5307 15.9488 46.1707 16.0821 45.84C16.2155 45.5093 16.4235 45.2453 16.7061 45.048C16.9888 44.8453 17.3541 44.744 17.8021 44.744C18.2555 44.744 18.6208 44.848 18.8981 45.056C19.1808 45.2587 19.3888 45.5253 19.5221 45.856C19.6555 46.1867 19.7221 46.5413 19.7221 46.92C19.7221 47.3307 19.6501 47.7013 19.5061 48.032C19.3675 48.3573 19.1568 48.616 18.8741 48.808C18.5915 49 18.2341 49.096 17.8021 49.096ZM17.8021 48.488C18.0421 48.488 18.2421 48.4427 18.4021 48.352C18.5621 48.256 18.6875 48.1307 18.7781 47.976C18.8741 47.8213 18.9408 47.6533 18.9781 47.472C19.0155 47.2853 19.0341 47.1013 19.0341 46.92C19.0341 46.744 19.0128 46.5653 18.9701 46.384C18.9328 46.1973 18.8688 46.0267 18.7781 45.872C18.6875 45.7173 18.5621 45.592 18.4021 45.496C18.2421 45.4 18.0421 45.352 17.8021 45.352C17.5515 45.352 17.3461 45.4 17.1861 45.496C17.0261 45.592 16.9008 45.72 16.8101 45.88C16.7195 46.0347 16.6555 46.2053 16.6181 46.392C16.5861 46.5733 16.5701 46.7493 16.5701 46.92C16.5701 47.1653 16.6048 47.4107 16.6741 47.656C16.7488 47.896 16.8741 48.096 17.0501 48.256C17.2315 48.4107 17.4821 48.488 17.8021 48.488Z" fill="#838200"/>
<path d="M20.5354 49V44.84H21.3594L22.8154 48.184H22.8394L24.1354 44.84H25.1194V49H24.4554V46.024H24.4314L23.1194 49H22.5434L21.1994 45.984H21.1754C21.1808 46.0267 21.1834 46.1013 21.1834 46.208C21.1888 46.3093 21.1914 46.4267 21.1914 46.56C21.1968 46.688 21.1994 46.816 21.1994 46.944C21.1994 47.0667 21.1994 47.168 21.1994 47.248V49H20.5354Z" fill="#838200"/>
<path d="M26.1448 49V44.84H29.4888V49H28.8008V45.448H26.8328V49H26.1448Z" fill="#838200"/>
<path d="M31.7049 49.096C31.4329 49.096 31.1903 49.0347 30.9769 48.912C30.7689 48.7893 30.6063 48.624 30.4889 48.416C30.3716 48.208 30.3129 47.976 30.3129 47.72C30.3129 47.3253 30.4543 47.0107 30.7369 46.776C31.0196 46.5413 31.4063 46.424 31.8969 46.424H32.9209V46.232C32.9209 46.0293 32.8863 45.8693 32.8169 45.752C32.7476 45.6347 32.6596 45.5493 32.5529 45.496C32.4516 45.4373 32.3449 45.4 32.2329 45.384C32.1263 45.3627 32.0303 45.352 31.9449 45.352C31.6996 45.352 31.4836 45.408 31.2969 45.52C31.1103 45.632 30.9849 45.768 30.9209 45.928H30.2649C30.3076 45.704 30.4063 45.504 30.5609 45.328C30.7156 45.1467 30.9129 45.0053 31.1529 44.904C31.3929 44.7973 31.6569 44.744 31.9449 44.744C32.2649 44.744 32.5556 44.8027 32.8169 44.92C33.0783 45.0373 33.2756 45.2053 33.4089 45.424C33.5423 45.6373 33.6089 45.9387 33.6089 46.328V49H32.9529V48.496H32.9369C32.8729 48.576 32.7823 48.664 32.6649 48.76C32.5476 48.8507 32.4089 48.9307 32.2489 49C32.0889 49.064 31.9076 49.096 31.7049 49.096ZM31.8009 48.488C32.0089 48.488 32.1956 48.4453 32.3609 48.36C32.5316 48.2693 32.6676 48.1493 32.7689 48C32.8703 47.8453 32.9209 47.672 32.9209 47.48V47.016H31.9449C31.5716 47.016 31.3209 47.0773 31.1929 47.2C31.0649 47.3227 31.0009 47.4907 31.0009 47.704C31.0009 47.9173 31.0756 48.1013 31.2249 48.256C31.3743 48.4107 31.5663 48.488 31.8009 48.488Z" fill="#838200"/>
<path d="M34.5667 49V44.84H35.2547V46.472H37.2387V44.84H37.9267V49H37.2387V47.096H35.2547V49H34.5667Z" fill="#838200"/>
<path d="M38.9495 49V44.84H39.6215V47.92L41.6855 44.84H42.3575V49H41.6855V45.944L39.6215 49H38.9495Z" fill="#838200"/>
<path d="M43.3792 49V44.84H44.0512V47.92L46.1152 44.84H46.7872V49H46.1152V45.944L44.0512 49H43.3792ZM45.0672 44.152C44.8432 44.152 44.6459 44.1013 44.4752 44C44.3045 43.8933 44.1712 43.7547 44.0752 43.584C43.9845 43.4133 43.9392 43.2347 43.9392 43.048V42.936H44.5312V43.064C44.5312 43.192 44.5685 43.3147 44.6432 43.432C44.7232 43.5493 44.8645 43.608 45.0672 43.608C45.2752 43.608 45.4219 43.56 45.5072 43.464C45.5979 43.3627 45.6432 43.248 45.6432 43.12V42.936H46.2272V43.08C46.2272 43.2667 46.1792 43.4427 46.0832 43.608C45.9925 43.768 45.8592 43.8987 45.6832 44C45.5125 44.1013 45.3072 44.152 45.0672 44.152Z" fill="#838200"/>
<path d="M49.5864 49V43.4H51.3464C51.9171 43.4 52.4104 43.5093 52.8264 43.728C53.2424 43.9467 53.5624 44.264 53.7864 44.68C54.0158 45.096 54.1304 45.5973 54.1304 46.184C54.1304 46.776 54.0158 47.2827 53.7864 47.704C53.5624 48.1253 53.2424 48.448 52.8264 48.672C52.4104 48.8907 51.9171 49 51.3464 49H49.5864ZM51.2504 44.04H50.3064V48.344H51.2504C51.9598 48.344 52.4958 48.1573 52.8584 47.784C53.2264 47.4107 53.4104 46.8773 53.4104 46.184C53.4104 45.5013 53.2291 44.9733 52.8664 44.6C52.5038 44.2267 51.9651 44.04 51.2504 44.04Z" fill="#838200"/>
<path d="M56.6165 49L54.5045 43.4H55.2725L56.5525 46.872C56.6272 47.0853 56.6992 47.296 56.7685 47.504C56.8432 47.712 56.9098 47.9227 56.9685 48.136H57.0165C57.0752 47.928 57.1392 47.72 57.2085 47.512C57.2832 47.2987 57.3578 47.0853 57.4325 46.872L58.6965 43.4H59.4645L57.3525 49H56.6165Z" fill="#838200"/>
<path d="M63.9816 49.096C63.4749 49.096 63.0296 48.9733 62.6456 48.728C62.2669 48.4827 61.9709 48.1413 61.7576 47.704C61.5442 47.2667 61.4376 46.76 61.4376 46.184C61.4376 45.608 61.5416 45.104 61.7496 44.672C61.9629 44.24 62.2616 43.904 62.6456 43.664C63.0296 43.424 63.4749 43.304 63.9816 43.304C64.4242 43.304 64.8056 43.384 65.1256 43.544C65.4456 43.704 65.7016 43.92 65.8936 44.192C66.0909 44.464 66.2216 44.7707 66.2856 45.112H65.5656C65.4589 44.7653 65.2802 44.488 65.0296 44.28C64.7842 44.0667 64.4349 43.96 63.9816 43.96C63.5922 43.96 63.2616 44.0587 62.9896 44.256C62.7229 44.448 62.5202 44.712 62.3816 45.048C62.2429 45.384 62.1736 45.7627 62.1736 46.184C62.1736 46.632 62.2482 47.024 62.3976 47.36C62.5522 47.696 62.7629 47.9573 63.0296 48.144C63.3016 48.3307 63.6136 48.424 63.9656 48.424C64.2749 48.424 64.5389 48.368 64.7576 48.256C64.9816 48.1387 65.1629 47.9893 65.3016 47.808C65.4402 47.6267 65.5336 47.4373 65.5816 47.24H66.3016C66.2536 47.544 66.1336 47.8373 65.9416 48.12C65.7496 48.4027 65.4909 48.6373 65.1656 48.824C64.8402 49.0053 64.4456 49.096 63.9816 49.096Z" fill="#838200"/>
<path d="M68.8021 49.096C68.3488 49.096 67.9808 48.9947 67.6981 48.792C67.4155 48.584 67.2075 48.3147 67.0741 47.984C66.9461 47.6533 66.8821 47.2987 66.8821 46.92C66.8821 46.5307 66.9488 46.1707 67.0821 45.84C67.2155 45.5093 67.4235 45.2453 67.7061 45.048C67.9888 44.8453 68.3541 44.744 68.8021 44.744C69.2555 44.744 69.6208 44.848 69.8981 45.056C70.1808 45.2587 70.3888 45.5253 70.5221 45.856C70.6555 46.1867 70.7221 46.5413 70.7221 46.92C70.7221 47.3307 70.6501 47.7013 70.5061 48.032C70.3675 48.3573 70.1568 48.616 69.8741 48.808C69.5915 49 69.2341 49.096 68.8021 49.096ZM68.8021 48.488C69.0421 48.488 69.2421 48.4427 69.4021 48.352C69.5621 48.256 69.6875 48.1307 69.7781 47.976C69.8741 47.8213 69.9408 47.6533 69.9781 47.472C70.0155 47.2853 70.0341 47.1013 70.0341 46.92C70.0341 46.744 70.0128 46.5653 69.9701 46.384C69.9328 46.1973 69.8688 46.0267 69.7781 45.872C69.6875 45.7173 69.5621 45.592 69.4021 45.496C69.2421 45.4 69.0421 45.352 68.8021 45.352C68.5515 45.352 68.3461 45.4 68.1861 45.496C68.0261 45.592 67.9008 45.72 67.8101 45.88C67.7195 46.0347 67.6555 46.2053 67.6181 46.392C67.5861 46.5733 67.5701 46.7493 67.5701 46.92C67.5701 47.1653 67.6048 47.4107 67.6741 47.656C67.7488 47.896 67.8741 48.096 68.0501 48.256C68.2315 48.4107 68.4821 48.488 68.8021 48.488Z" fill="#838200"/>
<path d="M71.5354 49V44.84H72.2234V45.288H72.2394C72.3674 45.0907 72.5434 44.952 72.7674 44.872C72.9914 44.7867 73.2154 44.744 73.4394 44.744C73.9888 44.744 74.3754 44.92 74.5994 45.272C74.8234 45.6187 74.9354 46.0907 74.9354 46.688V49H74.2474V46.736C74.2474 46.352 74.2181 46.072 74.1594 45.896C74.0954 45.736 73.9861 45.608 73.8314 45.512C73.6821 45.416 73.5034 45.368 73.2954 45.368C73.0768 45.368 72.8794 45.4187 72.7034 45.52C72.5274 45.6213 72.3941 45.7787 72.3034 45.992C72.2768 46.0613 72.2554 46.1787 72.2394 46.344C72.2288 46.504 72.2234 46.7333 72.2234 47.032V49H71.5354Z" fill="#838200"/>
<path d="M77.4382 49.096C77.2996 49.096 77.1636 49.0827 77.0303 49.056C76.9023 49.0347 76.7769 49.0053 76.6543 48.968C76.4089 48.888 76.2062 48.7573 76.0462 48.576C75.8862 48.3947 75.7849 48.1573 75.7423 47.864H76.4143C76.4569 48.0613 76.5662 48.2133 76.7422 48.32C76.9236 48.4213 77.1502 48.472 77.4222 48.472C77.6943 48.472 77.9076 48.416 78.0622 48.304C78.2223 48.192 78.3023 48.0347 78.3023 47.832C78.3023 47.688 78.2463 47.552 78.1343 47.424C78.0276 47.296 77.8809 47.2187 77.6943 47.192L76.9743 47.088C76.6169 47.0347 76.3343 46.9253 76.1263 46.76C75.9236 46.5893 75.8223 46.3387 75.8223 46.008C75.8223 45.7787 75.8863 45.568 76.0143 45.376C76.1423 45.184 76.3183 45.032 76.5423 44.92C76.7716 44.8027 77.0383 44.744 77.3423 44.744C77.7743 44.744 78.1263 44.8507 78.3983 45.064C78.6756 45.272 78.8462 45.5493 78.9102 45.896H78.2383C78.1049 45.5333 77.8063 45.352 77.3423 45.352C77.0863 45.352 76.8836 45.4107 76.7343 45.528C76.5849 45.6453 76.5103 45.7893 76.5103 45.96C76.5103 46.232 76.7022 46.3973 77.0863 46.456L77.8223 46.568C78.0569 46.6 78.2622 46.6587 78.4382 46.744C78.6143 46.824 78.7503 46.9493 78.8463 47.12C78.9423 47.2853 78.9902 47.512 78.9902 47.8C78.9902 48.0773 78.9183 48.3147 78.7743 48.512C78.6356 48.704 78.4489 48.8507 78.2142 48.952C77.9796 49.048 77.7209 49.096 77.4382 49.096Z" fill="#838200"/>
<path d="M83.2001 44.84V49H82.5121V48.552H82.4961C82.3681 48.7493 82.1921 48.8907 81.9681 48.976C81.7441 49.056 81.5201 49.096 81.2961 49.096C80.7468 49.096 80.3601 48.9227 80.1361 48.576C79.9121 48.224 79.8001 47.7493 79.8001 47.152V44.84H80.4881V47.104C80.4881 47.488 80.5175 47.768 80.5761 47.944C80.6401 48.104 80.7468 48.232 80.8961 48.328C81.0508 48.424 81.2321 48.472 81.4401 48.472C81.8881 48.472 82.2188 48.264 82.4321 47.848C82.4855 47.7467 82.5121 47.4 82.5121 46.808V44.84H83.2001Z" fill="#838200"/>
<path d="M84.3109 49V43.08H84.9989V49H84.3109Z" fill="#838200"/>
<path d="M87.6176 49.096C87.2229 49.096 86.9269 48.9973 86.7296 48.8C86.5322 48.5973 86.4336 48.2853 86.4336 47.864V45.448H85.7616V44.84H86.4336V43.992H87.1216V44.84H88.0016V45.448H87.1216V47.832C87.1216 48.0827 87.1749 48.2533 87.2816 48.344C87.3882 48.4293 87.5376 48.472 87.7296 48.472H88.0016V49.096H87.6176Z" fill="#838200"/>
<path d="M88.8723 43.128H89.6723V43.928H88.8723V43.128ZM88.9363 49V44.84H89.6163V49H88.9363Z" fill="#838200"/>
<path d="M90.7386 49V44.84H91.4266V45.288H91.4426C91.5706 45.0907 91.7466 44.952 91.9706 44.872C92.1946 44.7867 92.4186 44.744 92.6426 44.744C93.1919 44.744 93.5786 44.92 93.8026 45.272C94.0266 45.6187 94.1386 46.0907 94.1386 46.688V49H93.4506V46.736C93.4506 46.352 93.4212 46.072 93.3626 45.896C93.2986 45.736 93.1892 45.608 93.0346 45.512C92.8852 45.416 92.7066 45.368 92.4986 45.368C92.2799 45.368 92.0826 45.4187 91.9066 45.52C91.7306 45.6213 91.5972 45.7787 91.5066 45.992C91.4799 46.0613 91.4586 46.1787 91.4426 46.344C91.4319 46.504 91.4266 46.7333 91.4266 47.032V49H90.7386Z" fill="#838200"/>
<path d="M96.8334 50.616C96.492 50.616 96.1987 50.5547 95.9534 50.432C95.708 50.3147 95.5134 50.1573 95.3694 49.96C95.2254 49.768 95.1374 49.56 95.1054 49.336H95.7934C95.852 49.5173 95.9614 49.672 96.1214 49.8C96.2867 49.928 96.5294 49.992 96.8494 49.992C97.2174 49.992 97.5054 49.888 97.7134 49.68C97.9267 49.4773 98.0334 49.1813 98.0334 48.792V48.424H98.0014C97.8734 48.616 97.7 48.776 97.4814 48.904C97.268 49.032 97.02 49.096 96.7374 49.096C96.3854 49.096 96.0707 49 95.7934 48.808C95.5214 48.616 95.3054 48.3547 95.1454 48.024C94.9907 47.6933 94.9134 47.32 94.9134 46.904C94.9134 46.4987 94.988 46.1333 95.1374 45.808C95.292 45.4827 95.5054 45.224 95.7774 45.032C96.0547 44.84 96.38 44.744 96.7534 44.744C97.036 44.744 97.2894 44.8027 97.5134 44.92C97.7374 45.032 97.9054 45.1813 98.0174 45.368H98.0494V44.84H98.7214V48.792C98.7214 49.1707 98.6387 49.496 98.4734 49.768C98.3134 50.0453 98.092 50.256 97.8094 50.4C97.5267 50.544 97.2014 50.616 96.8334 50.616ZM96.8174 48.44C97.0574 48.44 97.2707 48.376 97.4574 48.248C97.644 48.1147 97.788 47.9333 97.8894 47.704C97.996 47.4747 98.0494 47.2133 98.0494 46.92V46.888C98.0494 46.4293 97.9347 46.0667 97.7054 45.8C97.476 45.5333 97.18 45.4 96.8174 45.4C96.5934 45.4 96.3907 45.4613 96.2094 45.584C96.028 45.7067 95.884 45.8827 95.7774 46.112C95.6707 46.336 95.6174 46.6 95.6174 46.904C95.6174 47.1973 95.6707 47.4613 95.7774 47.696C95.884 47.9253 96.028 48.1067 96.2094 48.24C96.3907 48.3733 96.5934 48.44 96.8174 48.44Z" fill="#838200"/>
<defs>
<clipPath id="clip0_157_501">
<rect width="112" height="59" rx="4" fill="white"/>
</clipPath>
</defs>
</svg>
