<svg width="40" height="40" viewBox="0 0 40 40" fill="none" xmlns="http://www.w3.org/2000/svg">
<rect width="40" height="40" rx="8" fill="#EEED56"/>
<path d="M21.5253 12.3059C21.5508 12.2107 21.5947 12.1215 21.6547 12.0433C21.7147 11.9651 21.7894 11.8995 21.8748 11.8503C21.9601 11.801 22.0543 11.769 22.152 11.7561C22.2496 11.7433 22.3489 11.7498 22.4441 11.7753C23.8344 12.1381 25.103 12.8649 26.119 13.881C27.1351 14.897 27.8619 16.1656 28.2247 17.5559C28.2502 17.6511 28.2567 17.7504 28.2439 17.848C28.231 17.9457 28.199 18.0399 28.1497 18.1252C28.1005 18.2106 28.0349 18.2853 27.9567 18.3453C27.8785 18.4053 27.7893 18.4492 27.6941 18.4747C27.6307 18.4913 27.5655 18.4998 27.5 18.5C27.3347 18.5 27.1741 18.4454 27.043 18.3447C26.912 18.244 26.8179 18.1028 26.7753 17.9431C26.4795 16.8081 25.8863 15.7725 25.0569 14.9431C24.2275 14.1137 23.1919 13.5205 22.0569 13.2247C21.9616 13.1993 21.8723 13.1554 21.794 13.0955C21.7157 13.0356 21.65 12.9608 21.6006 12.8755C21.5513 12.7902 21.5192 12.696 21.5063 12.5982C21.4933 12.5005 21.4998 12.4012 21.5253 12.3059ZM21.3069 16.2247C22.5997 16.5697 23.4303 17.4003 23.7753 18.6931C23.8179 18.8528 23.912 18.994 24.043 19.0947C24.1741 19.1954 24.3347 19.25 24.5 19.25C24.5655 19.2498 24.6307 19.2413 24.6941 19.2247C24.7893 19.1992 24.8785 19.1553 24.9567 19.0953C25.0349 19.0353 25.1005 18.9606 25.1497 18.8752C25.199 18.7899 25.231 18.6957 25.2439 18.598C25.2567 18.5004 25.2502 18.4011 25.2247 18.3059C24.7447 16.5097 23.4903 15.2553 21.6941 14.7753C21.5019 14.724 21.2971 14.7511 21.1249 14.8507C20.9527 14.9503 20.8271 15.1142 20.7758 15.3064C20.7244 15.4986 20.7516 15.7033 20.8512 15.8755C20.9508 16.0477 21.1147 16.1733 21.3069 16.2247ZM28.9888 25.1637C28.8216 26.4341 28.1977 27.6001 27.2337 28.4441C26.2696 29.2881 25.0313 29.7523 23.75 29.75C16.3063 29.75 10.25 23.6937 10.25 16.25C10.2477 14.9687 10.7119 13.7304 11.5559 12.7663C12.3999 11.8023 13.5659 11.1784 14.8363 11.0112C15.1575 10.972 15.4828 11.0377 15.7636 11.1986C16.0444 11.3594 16.2657 11.6068 16.3944 11.9037L18.3744 16.3241V16.3353C18.4729 16.5626 18.5136 16.8108 18.4928 17.0576C18.472 17.3045 18.3904 17.5424 18.2553 17.75C18.2384 17.7753 18.2206 17.7987 18.2019 17.8222L16.25 20.1359C16.9522 21.5628 18.4447 23.0422 19.8903 23.7462L22.1722 21.8047C22.1946 21.7858 22.2181 21.7683 22.2425 21.7522C22.45 21.6138 22.6887 21.5293 22.937 21.5064C23.1853 21.4835 23.4354 21.5229 23.6647 21.6209L23.6769 21.6266L28.0934 23.6056C28.3909 23.7338 28.6389 23.9549 28.8003 24.2358C28.9616 24.5166 29.0278 24.8422 28.9888 25.1637ZM27.5 24.9762C27.5 24.9762 27.4934 24.9762 27.4897 24.9762L23.0834 23.0028L20.8006 24.9444C20.7785 24.9631 20.7553 24.9807 20.7313 24.9969C20.5154 25.1409 20.2659 25.2264 20.0071 25.2452C19.7483 25.2639 19.489 25.2152 19.2547 25.1037C17.4988 24.2553 15.7484 22.5181 14.8991 20.7809C14.7866 20.5483 14.7361 20.2906 14.7526 20.0327C14.769 19.7748 14.8517 19.5255 14.9928 19.3091C15.0087 19.2836 15.0266 19.2595 15.0463 19.2369L17 16.9203L15.0313 12.5141C15.0309 12.5103 15.0309 12.5065 15.0313 12.5028C14.1221 12.6214 13.2874 13.0673 12.6834 13.7571C12.0794 14.4469 11.7476 15.3332 11.75 16.25C11.7535 19.4315 13.0189 22.4818 15.2686 24.7314C17.5182 26.9811 20.5685 28.2465 23.75 28.25C24.6663 28.2531 25.5523 27.9225 26.2425 27.3198C26.9327 26.7171 27.3797 25.8837 27.5 24.9753V24.9762Z" fill="#2B3036"/>
</svg>
