<svg width="50" height="50" viewBox="0 0 50 50" fill="none" xmlns="http://www.w3.org/2000/svg">
<rect width="50" height="50" rx="8" fill="#444A50"/>
<path d="M26.9066 15.3824C26.9385 15.2635 26.9934 15.1519 27.0684 15.0542C27.1433 14.9564 27.2368 14.8744 27.3434 14.8128C27.4501 14.7512 27.5678 14.7113 27.6899 14.6952C27.812 14.6791 27.9361 14.6873 28.0551 14.7191C29.793 15.1726 31.3787 16.0812 32.6488 17.3512C33.9189 18.6213 34.8274 20.207 35.2809 21.9449C35.3128 22.0639 35.3209 22.188 35.3048 22.3101C35.2887 22.4322 35.2488 22.5499 35.1872 22.6566C35.1256 22.7632 35.0436 22.8567 34.9458 22.9316C34.8481 23.0066 34.7366 23.0615 34.6176 23.0934C34.5384 23.1142 34.4569 23.1248 34.375 23.125C34.1684 23.125 33.9676 23.0568 33.8038 22.9309C33.64 22.805 33.5223 22.6285 33.4691 22.4289C33.0993 21.0101 32.3578 19.7157 31.3211 18.6789C30.2843 17.6422 28.9899 16.9007 27.5711 16.5309C27.452 16.4992 27.3403 16.4443 27.2425 16.3694C27.1446 16.2945 27.0625 16.2011 27.0008 16.0944C26.9391 15.9877 26.899 15.87 26.8828 15.7478C26.8667 15.6256 26.8748 15.5015 26.9066 15.3824ZM26.6336 20.2809C28.2496 20.7121 29.2879 21.7504 29.7191 23.3664C29.7723 23.566 29.89 23.7425 30.0538 23.8684C30.2176 23.9943 30.4184 24.0625 30.625 24.0625C30.7069 24.0623 30.7884 24.0517 30.8676 24.0309C30.9866 23.999 31.0981 23.9441 31.1958 23.8691C31.2936 23.7942 31.3756 23.7007 31.4372 23.5941C31.4988 23.4874 31.5387 23.3697 31.5548 23.2476C31.5709 23.1255 31.5628 23.0014 31.5309 22.8824C30.9309 20.6371 29.3629 19.0691 27.1176 18.4691C26.8773 18.405 26.6214 18.4389 26.4062 18.5634C26.1909 18.6879 26.0339 18.8928 25.9697 19.133C25.9055 19.3733 25.9394 19.6292 26.0639 19.8444C26.1884 20.0597 26.3933 20.2167 26.6336 20.2809ZM36.2359 31.4547C36.027 33.0426 35.2471 34.5002 34.0421 35.5552C32.837 36.6101 31.2891 37.1904 29.6875 37.1875C20.3828 37.1875 12.8125 29.6172 12.8125 20.3125C12.8096 18.7109 13.3899 17.163 14.4448 15.9579C15.4998 14.7529 16.9574 13.973 18.5453 13.7641C18.9469 13.715 19.3535 13.7972 19.7045 13.9983C20.0555 14.1993 20.3321 14.5085 20.493 14.8797L22.968 20.4051V20.4191C23.0911 20.7033 23.142 21.0135 23.116 21.322C23.09 21.6306 22.988 21.928 22.8191 22.1875C22.798 22.2191 22.7758 22.2484 22.7523 22.2777L20.3125 25.1699C21.1902 26.9535 23.0559 28.8027 24.8629 29.6828L27.7152 27.2559C27.7432 27.2323 27.7726 27.2104 27.8031 27.1902C28.0625 27.0173 28.3608 26.9117 28.6712 26.883C28.9816 26.8544 29.2943 26.9036 29.5809 27.0262L29.5961 27.0332L35.1168 29.507C35.4886 29.6673 35.7986 29.9437 36.0003 30.2947C36.202 30.6458 36.2847 31.0527 36.2359 31.4547ZM34.375 31.2203C34.375 31.2203 34.3668 31.2203 34.3621 31.2203L28.8543 28.7535L26.0008 31.1805C25.9731 31.2039 25.9442 31.2258 25.9141 31.2461C25.6442 31.4261 25.3323 31.533 25.0088 31.5565C24.6853 31.5799 24.3613 31.519 24.0684 31.3797C21.8734 30.3191 19.6855 28.1477 18.6238 25.9762C18.4832 25.6854 18.4202 25.3632 18.4407 25.0409C18.4612 24.7185 18.5647 24.4069 18.741 24.1363C18.7609 24.1046 18.7832 24.0744 18.8078 24.0461L21.25 21.1504L18.7891 15.6426C18.7886 15.6379 18.7886 15.6332 18.7891 15.6285C17.6526 15.7768 16.6092 16.3342 15.8542 17.1964C15.0992 18.0586 14.6844 19.1665 14.6875 20.3125C14.6918 24.2894 16.2736 28.1022 19.0857 30.9143C21.8978 33.7264 25.7106 35.3082 29.6875 35.3125C30.8328 35.3164 31.9404 34.9031 32.8031 34.1497C33.6658 33.3964 34.2246 32.3546 34.375 31.2191V31.2203Z" fill="url(#paint0_linear_157_142)"/>
<defs>
<linearGradient id="paint0_linear_157_142" x1="24.531" y1="13.7502" x2="24.531" y2="37.1875" gradientUnits="userSpaceOnUse">
<stop stop-color="#EEED56"/>
<stop offset="1" stop-color="#EDC646"/>
</linearGradient>
</defs>
</svg>
